<mxfile host="app.diagrams.net" modified="2022-05-31T01:19:39.084Z" agent="5.0 (Windows NT 10.0; Win64; x64) AppleWebKit/537.36 (KHTML, like Gecko) Chrome/90.0.4430.72 Safari/537.36" etag="f2B1PliZujKDxECcFcVm" version="18.1.3" type="github">
  <diagram id="KEgm51hLiumPlPGKGr2v" name="第 1 页">
    <mxGraphModel dx="1422" dy="762" grid="1" gridSize="10" guides="1" tooltips="1" connect="1" arrows="1" fold="1" page="1" pageScale="1" pageWidth="1169" pageHeight="827" math="0" shadow="0">
      <root>
        <mxCell id="0" />
        <mxCell id="1" parent="0" />
        <mxCell id="BuNuY5LoOj_fhjRixEMa-7" style="edgeStyle=orthogonalEdgeStyle;rounded=0;orthogonalLoop=1;jettySize=auto;html=1;exitX=0.5;exitY=1;exitDx=0;exitDy=0;entryX=0.5;entryY=0;entryDx=0;entryDy=0;curved=1;" edge="1" parent="1" source="BuNuY5LoOj_fhjRixEMa-2" target="BuNuY5LoOj_fhjRixEMa-6">
          <mxGeometry relative="1" as="geometry" />
        </mxCell>
        <mxCell id="BuNuY5LoOj_fhjRixEMa-2" value="1&lt;br&gt;100/100" style="ellipse;whiteSpace=wrap;html=1;fillColor=#f9f7ed;strokeColor=#36393d;" vertex="1" parent="1">
          <mxGeometry x="40" y="30" width="70" height="50" as="geometry" />
        </mxCell>
        <mxCell id="BuNuY5LoOj_fhjRixEMa-8" style="edgeStyle=orthogonalEdgeStyle;rounded=0;orthogonalLoop=1;jettySize=auto;html=1;exitX=0.5;exitY=1;exitDx=0;exitDy=0;entryX=0.5;entryY=0;entryDx=0;entryDy=0;curved=1;" edge="1" parent="1" source="BuNuY5LoOj_fhjRixEMa-3" target="BuNuY5LoOj_fhjRixEMa-6">
          <mxGeometry relative="1" as="geometry" />
        </mxCell>
        <mxCell id="BuNuY5LoOj_fhjRixEMa-3" value="2&lt;br&gt;30/30" style="ellipse;whiteSpace=wrap;html=1;fillColor=#f9f7ed;strokeColor=#36393d;" vertex="1" parent="1">
          <mxGeometry x="160" y="30" width="70" height="50" as="geometry" />
        </mxCell>
        <mxCell id="BuNuY5LoOj_fhjRixEMa-10" style="edgeStyle=orthogonalEdgeStyle;curved=1;rounded=0;orthogonalLoop=1;jettySize=auto;html=1;exitX=0.5;exitY=1;exitDx=0;exitDy=0;entryX=0.5;entryY=0;entryDx=0;entryDy=0;" edge="1" parent="1" source="BuNuY5LoOj_fhjRixEMa-4" target="BuNuY5LoOj_fhjRixEMa-9">
          <mxGeometry relative="1" as="geometry" />
        </mxCell>
        <mxCell id="BuNuY5LoOj_fhjRixEMa-17" style="edgeStyle=orthogonalEdgeStyle;curved=1;rounded=0;orthogonalLoop=1;jettySize=auto;html=1;exitX=0.5;exitY=1;exitDx=0;exitDy=0;entryX=0.5;entryY=0;entryDx=0;entryDy=0;" edge="1" parent="1" source="BuNuY5LoOj_fhjRixEMa-4" target="BuNuY5LoOj_fhjRixEMa-12">
          <mxGeometry relative="1" as="geometry" />
        </mxCell>
        <mxCell id="BuNuY5LoOj_fhjRixEMa-4" value="3&lt;br&gt;500/500" style="ellipse;whiteSpace=wrap;html=1;fillColor=#f9f7ed;strokeColor=#36393d;" vertex="1" parent="1">
          <mxGeometry x="280" y="30" width="70" height="50" as="geometry" />
        </mxCell>
        <mxCell id="BuNuY5LoOj_fhjRixEMa-11" style="edgeStyle=orthogonalEdgeStyle;curved=1;rounded=0;orthogonalLoop=1;jettySize=auto;html=1;exitX=0.5;exitY=1;exitDx=0;exitDy=0;entryX=0.5;entryY=0;entryDx=0;entryDy=0;" edge="1" parent="1" source="BuNuY5LoOj_fhjRixEMa-5" target="BuNuY5LoOj_fhjRixEMa-9">
          <mxGeometry relative="1" as="geometry" />
        </mxCell>
        <mxCell id="BuNuY5LoOj_fhjRixEMa-5" value="4&lt;br&gt;80/80" style="ellipse;whiteSpace=wrap;html=1;fillColor=#f9f7ed;strokeColor=#36393d;" vertex="1" parent="1">
          <mxGeometry x="400" y="30" width="70" height="50" as="geometry" />
        </mxCell>
        <mxCell id="BuNuY5LoOj_fhjRixEMa-15" style="edgeStyle=orthogonalEdgeStyle;curved=1;rounded=0;orthogonalLoop=1;jettySize=auto;html=1;exitX=0.5;exitY=1;exitDx=0;exitDy=0;entryX=0.5;entryY=0;entryDx=0;entryDy=0;" edge="1" parent="1" source="BuNuY5LoOj_fhjRixEMa-6" target="BuNuY5LoOj_fhjRixEMa-12">
          <mxGeometry relative="1" as="geometry" />
        </mxCell>
        <mxCell id="BuNuY5LoOj_fhjRixEMa-6" value="5&lt;br&gt;350/450" style="ellipse;whiteSpace=wrap;html=1;fillColor=#f9f7ed;strokeColor=#36393d;" vertex="1" parent="1">
          <mxGeometry x="100" y="120" width="70" height="50" as="geometry" />
        </mxCell>
        <mxCell id="BuNuY5LoOj_fhjRixEMa-18" style="edgeStyle=orthogonalEdgeStyle;curved=1;rounded=0;orthogonalLoop=1;jettySize=auto;html=1;exitX=0.5;exitY=1;exitDx=0;exitDy=0;entryX=0.5;entryY=0;entryDx=0;entryDy=0;" edge="1" parent="1" source="BuNuY5LoOj_fhjRixEMa-9" target="BuNuY5LoOj_fhjRixEMa-13">
          <mxGeometry relative="1" as="geometry" />
        </mxCell>
        <mxCell id="BuNuY5LoOj_fhjRixEMa-20" style="edgeStyle=orthogonalEdgeStyle;curved=1;rounded=0;orthogonalLoop=1;jettySize=auto;html=1;exitX=0.5;exitY=1;exitDx=0;exitDy=0;" edge="1" parent="1" source="BuNuY5LoOj_fhjRixEMa-9" target="BuNuY5LoOj_fhjRixEMa-14">
          <mxGeometry relative="1" as="geometry" />
        </mxCell>
        <mxCell id="BuNuY5LoOj_fhjRixEMa-9" value="6&lt;br&gt;300/800" style="ellipse;whiteSpace=wrap;html=1;fillColor=#f9f7ed;strokeColor=#36393d;" vertex="1" parent="1">
          <mxGeometry x="340" y="120" width="70" height="50" as="geometry" />
        </mxCell>
        <mxCell id="BuNuY5LoOj_fhjRixEMa-19" style="edgeStyle=orthogonalEdgeStyle;curved=1;rounded=0;orthogonalLoop=1;jettySize=auto;html=1;exitX=0.5;exitY=1;exitDx=0;exitDy=0;entryX=0.5;entryY=0;entryDx=0;entryDy=0;" edge="1" parent="1" source="BuNuY5LoOj_fhjRixEMa-12" target="BuNuY5LoOj_fhjRixEMa-13">
          <mxGeometry relative="1" as="geometry" />
        </mxCell>
        <mxCell id="BuNuY5LoOj_fhjRixEMa-12" value="7&lt;br&gt;50/550" style="ellipse;whiteSpace=wrap;html=1;fillColor=#f9f7ed;strokeColor=#36393d;" vertex="1" parent="1">
          <mxGeometry x="170" y="210" width="70" height="50" as="geometry" />
        </mxCell>
        <mxCell id="BuNuY5LoOj_fhjRixEMa-13" value="9&lt;br&gt;200/1050" style="ellipse;whiteSpace=wrap;html=1;fillColor=#f9f7ed;strokeColor=#36393d;" vertex="1" parent="1">
          <mxGeometry x="210" y="300" width="70" height="50" as="geometry" />
        </mxCell>
        <mxCell id="BuNuY5LoOj_fhjRixEMa-14" value="8&lt;br&gt;700/1500" style="ellipse;whiteSpace=wrap;html=1;fillColor=#f9f7ed;strokeColor=#36393d;" vertex="1" parent="1">
          <mxGeometry x="370" y="210" width="70" height="50" as="geometry" />
        </mxCell>
        <mxCell id="BuNuY5LoOj_fhjRixEMa-21" value="" style="endArrow=none;html=1;rounded=0;curved=1;dashed=1;strokeColor=#0000FF;strokeWidth=2;" edge="1" parent="1">
          <mxGeometry width="50" height="50" relative="1" as="geometry">
            <mxPoint x="10" y="100" as="sourcePoint" />
            <mxPoint x="510" y="100" as="targetPoint" />
          </mxGeometry>
        </mxCell>
        <mxCell id="BuNuY5LoOj_fhjRixEMa-22" value="" style="endArrow=none;html=1;rounded=0;curved=1;dashed=1;strokeColor=#0000FF;strokeWidth=2;" edge="1" parent="1">
          <mxGeometry width="50" height="50" relative="1" as="geometry">
            <mxPoint x="10" y="190" as="sourcePoint" />
            <mxPoint x="510" y="190" as="targetPoint" />
          </mxGeometry>
        </mxCell>
        <mxCell id="BuNuY5LoOj_fhjRixEMa-23" value="" style="endArrow=none;html=1;rounded=0;curved=1;dashed=1;strokeColor=#0000FF;strokeWidth=2;" edge="1" parent="1">
          <mxGeometry width="50" height="50" relative="1" as="geometry">
            <mxPoint x="10" y="280" as="sourcePoint" />
            <mxPoint x="510" y="280" as="targetPoint" />
          </mxGeometry>
        </mxCell>
      </root>
    </mxGraphModel>
  </diagram>
</mxfile>
